<svg width="49" height="50" viewBox="0 0 49 50" fill="none" xmlns="http://www.w3.org/2000/svg">
<path d="M34.6751 31.1251C35.0813 31.1251 35.4707 31.2864 35.7579 31.5736C36.0451 31.8608 36.2064 32.2503 36.2064 32.6564H37.7376C37.7376 31.8441 37.415 31.0652 36.8407 30.4909C36.2663 29.9165 35.4874 29.5939 34.6751 29.5939H34.4531V27.7334H32.9219V29.5939H32.6998C31.8876 29.5939 31.1086 29.9165 30.5343 30.4909C29.96 31.0652 29.6373 31.8441 29.6373 32.6564C29.6373 33.4686 29.96 34.2476 30.5343 34.8219C31.1086 35.3962 31.8876 35.7189 32.6998 35.7189H32.9219V38.7814H32.6998C32.2937 38.7814 31.9042 38.62 31.6171 38.3329C31.3299 38.0457 31.1686 37.6562 31.1686 37.2501H29.6373C29.6373 38.0623 29.96 38.8413 30.5343 39.4156C31.1086 39.99 31.8876 40.3126 32.6998 40.3126H32.9219V42.1731H34.4531V40.3126H34.6751C35.4874 40.3126 36.2663 39.99 36.8407 39.4156C37.415 38.8413 37.7376 38.0623 37.7376 37.2501C37.7376 36.4379 37.415 35.6589 36.8407 35.0846C36.2663 34.5103 35.4874 34.1876 34.6751 34.1876H34.4531V31.1251H34.6751ZM34.6751 35.7189C35.0813 35.7189 35.4707 35.8802 35.7579 36.1674C36.0451 36.4545 36.2064 36.844 36.2064 37.2501C36.2064 37.6562 36.0451 38.0457 35.7579 38.3329C35.4707 38.62 35.0813 38.7814 34.6751 38.7814H34.4531V35.7189H34.6751ZM32.9219 34.1876H32.6998C32.2937 34.1876 31.9042 34.0263 31.6171 33.7391C31.3299 33.452 31.1686 33.0625 31.1686 32.6564C31.1686 32.2503 31.3299 31.8608 31.6171 31.5736C31.9042 31.2864 32.2937 31.1251 32.6998 31.1251H32.9219V34.1876Z" fill="black"/>
<path d="M33.6875 21.9375C31.6383 21.9408 29.6189 22.4279 27.7935 23.3592C25.9682 24.2905 24.3886 25.6397 23.1831 27.2968H18.375V23.1242C19.4927 21.9281 20.8284 20.9563 22.3103 20.2607C23.6588 21.1981 25.2618 21.7003 26.9041 21.7001C27.6958 21.7011 28.483 21.5823 29.2392 21.3479C30.4435 20.9756 31.5432 20.3248 32.4491 19.4482C33.3549 18.5716 34.0415 17.4939 34.4531 16.3025C34.5045 16.1495 34.5063 15.9843 34.4582 15.8303C34.41 15.6763 34.3145 15.5414 34.1852 15.445C33.2197 14.7192 32.1015 14.223 30.9156 13.9942C29.7296 13.7653 28.5071 13.8098 27.3409 14.1242C26.1748 14.4387 25.0956 15.0148 24.1854 15.8088C23.2753 16.6028 22.5581 17.5938 22.0883 18.7065C20.7498 19.2735 19.5095 20.0487 18.4133 21.0034V15.1846C19.5995 14.9277 20.7111 14.4025 21.6628 13.6493C22.6145 12.8961 23.3811 11.9349 23.9036 10.8394C24.4262 9.74399 24.691 8.54341 24.6776 7.32978C24.6641 6.11614 24.3729 4.92171 23.8263 3.83809C23.7535 3.69277 23.6364 3.57438 23.4918 3.50006C23.3473 3.42573 23.1829 3.39932 23.0224 3.42465C21.927 3.60107 20.8802 4.00319 19.9483 4.60551C19.0165 5.20782 18.2201 5.99719 17.6094 6.92356C16.84 5.80706 15.8252 4.88156 14.6427 4.218C13.4602 3.55443 12.1415 3.17043 10.7877 3.09543C10.6245 3.0846 10.4621 3.12633 10.3243 3.21451C10.1865 3.30269 10.0806 3.43268 10.0221 3.58543C9.54662 4.81702 9.35323 6.13951 9.45608 7.45567C9.55894 8.77183 9.95544 10.0482 10.6164 11.191C11.2774 12.3338 12.1861 13.3139 13.2757 14.0593C14.3653 14.8048 15.608 15.2966 16.9127 15.4986V23.4687C16.0592 22.5313 15.0709 21.7263 13.9803 21.08C13.6888 19.9286 13.1363 18.8597 12.3654 17.9561C11.5946 17.0525 10.6261 16.3384 9.53505 15.8691C8.44398 15.3998 7.25954 15.1879 6.07343 15.2498C4.88732 15.3116 3.73135 15.6456 2.69502 16.2259C2.54968 16.3018 2.43256 16.4224 2.36089 16.5699C2.28922 16.7173 2.26678 16.8839 2.2969 17.0451C2.51927 18.2269 3.01339 19.3408 3.74023 20.2988C4.46708 21.2568 5.40673 22.0326 6.48495 22.565C7.56318 23.0975 8.75044 23.3719 9.95294 23.3666C11.1555 23.3613 12.3403 23.0765 13.4138 22.5346C14.7593 23.4188 15.9235 24.5518 16.8438 25.8728V27.2968H3.06252C2.85946 27.2968 2.66472 27.3775 2.52114 27.5211C2.37756 27.6647 2.2969 27.8594 2.2969 28.0625V34.1875C2.2969 34.3905 2.37756 34.5853 2.52114 34.7288C2.66472 34.8724 2.85946 34.9531 3.06252 34.9531H7.65627V39.5468H3.82815C3.62509 39.5468 3.43035 39.6275 3.28677 39.7711C3.14318 39.9147 3.06252 40.1094 3.06252 40.3125V46.4375C3.06252 46.6405 3.14318 46.8353 3.28677 46.9788C3.43035 47.1224 3.62509 47.2031 3.82815 47.2031H29.3311C30.728 47.7084 32.202 47.9674 33.6875 47.9687C37.1395 47.9687 40.4501 46.5974 42.891 44.1565C45.3319 41.7156 46.7031 38.405 46.7031 34.9531C46.7031 31.5011 45.3319 28.1906 42.891 25.7496C40.4501 23.3087 37.1395 21.9375 33.6875 21.9375ZM27.4706 15.667C28.3492 15.3996 29.2745 15.322 30.1853 15.4395C31.0961 15.557 31.9715 15.8668 32.7535 16.3484C32.3812 17.1884 31.8334 17.9389 31.1467 18.5494C30.4601 19.1599 29.6506 19.6161 28.7728 19.8874C27.895 20.1588 26.9692 20.2388 26.0579 20.1223C25.1465 20.0058 24.2707 19.6953 23.4894 19.2118C23.8639 18.3726 24.4126 17.6226 25.0989 17.0114C25.7853 16.4003 26.5937 15.942 27.4706 15.667ZM7.27346 21.2407C6.47683 20.8612 5.76916 20.3179 5.19662 19.6464C4.62408 18.975 4.19952 18.1903 3.95065 17.3437C4.76257 16.9898 5.64066 16.8133 6.52627 16.8259C7.41187 16.8385 8.28458 17.04 9.0861 17.4168C9.88762 17.7937 10.5995 18.3372 11.1742 19.0112C11.7488 19.6851 12.173 20.474 12.4185 21.325C11.6036 21.6751 10.7238 21.8487 9.83693 21.8342C8.95012 21.8197 8.07644 21.6174 7.27346 21.2407ZM22.6931 5.04777C23.0311 5.90229 23.182 6.81931 23.1358 7.73707C23.0895 8.65483 22.847 9.55202 22.4248 10.3682C22.0026 11.1844 21.4103 11.9006 20.688 12.4686C19.9656 13.0366 19.1299 13.4432 18.2372 13.6611C17.8992 12.8065 17.7483 11.8895 17.7946 10.9718C17.8409 10.054 18.0833 9.15681 18.5056 8.34064C18.9278 7.52446 19.52 6.80825 20.2424 6.24023C20.9647 5.67222 21.8004 5.26561 22.6931 5.04777ZM12.1046 10.7211C11.5304 9.83161 11.1552 8.82864 11.0045 7.78075C10.8539 6.73287 10.9314 5.66481 11.2317 4.64965C12.3945 4.80719 13.5028 5.24027 14.4643 5.9128C15.4258 6.58533 16.2128 7.47786 16.7596 8.51606C16.1254 10.2427 16.1038 12.1348 16.6983 13.8754C14.8124 13.4677 13.1624 12.3347 12.1046 10.7211ZM3.82815 28.8281H6.12502V31.125H7.65627V28.8281H12.25V31.125H13.7813V28.8281H18.375V31.125H19.9063V28.8281H22.2031C21.4382 30.255 20.9498 31.8136 20.7638 33.4218H16.8438V31.125H15.3125V33.4218H10.7188V31.125H9.18752V33.4218H3.82815V28.8281ZM9.18752 34.9531H11.4844V37.25H13.0156V34.9531H17.6094V37.25H19.1406V34.9531H20.6719C20.6773 36.5229 20.9652 38.079 21.5217 39.5468H16.0781V37.25H14.5469V39.5468H9.18752V34.9531ZM17.6094 45.6718V43.375H16.0781V45.6718H11.4844V43.375H9.95315V45.6718H4.59377V41.0781H6.89065V43.375H8.4219V41.0781H13.0156V43.375H14.5469V41.0781H19.1406V43.375H20.6719V41.0781H22.2031C23.1887 42.9146 24.5982 44.4895 26.3146 45.6718H17.6094ZM33.6875 46.4375C31.4161 46.4375 29.1957 45.7639 27.3071 44.502C25.4185 43.2401 23.9466 41.4465 23.0773 39.348C22.2081 37.2495 21.9807 34.9403 22.4238 32.7126C22.8669 30.4848 23.9607 28.4385 25.5668 26.8324C27.173 25.2263 29.2193 24.1325 31.447 23.6894C33.6748 23.2463 35.9839 23.4737 38.0824 24.3429C40.1809 25.2121 41.9745 26.6841 43.2364 28.5727C44.4983 30.4613 45.1719 32.6817 45.1719 34.9531C45.1719 37.9989 43.9619 40.92 41.8082 43.0738C39.6545 45.2275 36.7334 46.4375 33.6875 46.4375Z" fill="black"/>
<path d="M33.6875 25C31.719 25 29.7946 25.5837 28.1578 26.6774C26.5211 27.7711 25.2453 29.3255 24.492 31.1442C23.7387 32.9629 23.5416 34.9642 23.9256 36.8949C24.3097 38.8256 25.2576 40.5991 26.6496 41.991C28.0416 43.383 29.815 44.331 31.7457 44.715C33.6765 45.099 35.6777 44.9019 37.4964 44.1486C39.3151 43.3953 40.8696 42.1196 41.9632 40.4828C43.0569 38.846 43.6406 36.9217 43.6406 34.9531C43.6406 32.3134 42.592 29.7818 40.7254 27.9152C38.8589 26.0486 36.3272 25 33.6875 25ZM33.6875 43.375C32.0218 43.375 30.3935 42.8811 29.0086 41.9557C27.6236 41.0302 26.5441 39.7149 25.9067 38.176C25.2693 36.6371 25.1025 34.9438 25.4275 33.3101C25.7524 31.6764 26.5545 30.1758 27.7323 28.998C28.9102 27.8201 30.4108 27.018 32.0445 26.6931C33.6782 26.3681 35.3715 26.5349 36.9104 27.1723C38.4493 27.8098 39.7646 28.8892 40.69 30.2742C41.6154 31.6592 42.1094 33.2874 42.1094 34.9531C42.1094 37.1867 41.2221 39.3289 39.6427 40.9083C38.0633 42.4877 35.9211 43.375 33.6875 43.375Z" fill="black"/>
</svg>
