<svg width="92" height="86" viewBox="0 0 92 86" fill="none" xmlns="http://www.w3.org/2000/svg">
<path d="M81.3587 24.5363C75.6123 10.6604 61.9286 0.87305 46 0.873049C30.0714 0.873048 16.3877 10.6604 10.6413 24.5363C4.42983 26.0794 -1.34675e-06 31.6832 -1.62975e-06 38.1573C-1.89933e-06 44.3247 3.99643 49.7173 9.81309 51.5469C12.0152 57.9689 15.9191 63.7507 21.2254 68.2657C25.1298 78.1302 34.7634 85.1258 46.0002 85.1258C57.2369 85.1258 66.8703 78.1304 70.7749 68.2657C76.0813 63.7507 79.9852 57.9689 82.1873 51.5469C88.0036 49.7173 92 44.3247 92 38.1573C92 31.6832 87.5702 26.0794 81.3587 24.5363ZM7.76322 40.2178C7.76717 40.3525 7.77472 40.487 7.77993 40.6217C7.78891 40.849 7.79682 41.0765 7.80958 41.3031C7.8191 41.4706 7.8324 41.6377 7.84408 41.805C7.85737 41.9974 7.86959 42.1902 7.88594 42.3821C7.9014 42.565 7.9208 42.7471 7.93877 42.9294C7.9562 43.1052 7.97273 43.2807 7.9925 43.4561C8.01406 43.6462 8.03904 43.8358 8.06347 44.0254C8.08504 44.1921 8.1057 44.359 8.12906 44.5254C8.15637 44.7179 8.18674 44.9101 8.21693 45.102C8.24262 45.2652 8.26814 45.4284 8.29581 45.591C8.32851 45.7829 8.36373 45.9741 8.39949 46.1654C8.42968 46.3281 8.46022 46.4908 8.49293 46.6529C8.53048 46.8414 8.57037 47.0294 8.6108 47.2173C8.64638 47.3828 8.68286 47.5478 8.72059 47.7125C8.74108 47.8008 8.75869 47.8897 8.77971 47.9781C5.22315 46.0768 2.90555 42.3413 2.90555 38.1571C2.90555 33.7347 5.51012 29.823 9.37969 28.0413C8.67298 30.3758 8.19555 32.7685 7.94776 35.2009C7.94632 35.2149 7.94506 35.2289 7.94344 35.243C7.912 35.5552 7.88361 35.8679 7.85971 36.1815C7.85953 36.1838 7.85935 36.186 7.85917 36.1883C7.83545 36.4988 7.81605 36.8096 7.79987 37.1212C7.79754 37.1661 7.79592 37.2111 7.79394 37.256C7.7819 37.5068 7.77238 37.7582 7.76519 38.0098C7.76304 38.0858 7.7607 38.1614 7.75908 38.2374C7.75226 38.5332 7.74758 38.829 7.74758 39.1255C7.7474 39.4906 7.75297 39.8545 7.76322 40.2178ZM69.1292 49.8009L68.34 50.4206L68.6408 51.378C69.3614 53.6733 69.7267 56.0677 69.7267 58.4943C69.7267 58.6886 69.724 58.8823 69.7193 59.0754C69.7178 59.1308 69.7153 59.1863 69.7137 59.2417C69.7094 59.3814 69.7046 59.5211 69.6979 59.6601C69.695 59.7194 69.6913 59.7786 69.688 59.8375C69.6803 59.9751 69.672 60.1128 69.6618 60.2499C69.6578 60.304 69.6535 60.3579 69.6492 60.4118C69.6374 60.558 69.6246 60.7041 69.6102 60.8495C69.6059 60.8919 69.6018 60.9343 69.5973 60.9767C69.5802 61.1402 69.5617 61.3032 69.5412 61.4656C69.5382 61.4899 69.5353 61.514 69.5321 61.5382C68.0327 73.1885 58.0515 82.2203 46 82.2203C33.9485 82.2203 23.9673 73.1886 22.4683 61.5382C22.4652 61.514 22.4624 61.4899 22.4591 61.4656C22.4388 61.3032 22.4201 61.1402 22.4031 60.9767C22.3986 60.9343 22.3943 60.8919 22.3901 60.8495C22.3758 60.7039 22.3628 60.558 22.3511 60.4118C22.3468 60.3577 22.3423 60.304 22.3386 60.2499C22.3285 60.1128 22.3201 59.9753 22.3123 59.8375C22.3091 59.7784 22.3053 59.7191 22.3024 59.6601C22.2956 59.5211 22.2908 59.3814 22.2866 59.2416C22.2848 59.1863 22.2823 59.1311 22.2811 59.0754C22.2764 58.8823 22.2737 58.6886 22.2737 58.4943C22.2737 56.1446 22.6173 53.8214 23.2954 51.5891L23.5906 50.6167L22.7783 50.0059C18.7649 46.9879 16.463 42.3821 16.463 37.369C16.463 36.3574 16.5623 35.3689 16.7449 34.4096C16.7747 34.2531 16.8069 34.0978 16.8414 33.9429C16.9134 33.6188 16.9956 33.2986 17.0874 32.9823C17.1169 32.8804 17.1429 32.7773 17.1745 32.6761C17.6173 31.2559 18.2584 29.9228 19.0603 28.7048C19.2354 28.4391 19.4154 28.1769 19.6057 27.9223C19.7029 27.7924 19.8053 27.6664 19.9065 27.5397C19.9633 27.4686 20.0174 27.3955 20.0752 27.3254C20.1074 27.2864 20.1417 27.2499 20.1742 27.2113C20.4677 26.8627 20.7737 26.5249 21.0959 26.2029C21.418 25.8809 21.7555 25.5747 22.1043 25.2813C22.1429 25.2489 22.1795 25.2144 22.2184 25.1822C22.2884 25.1244 22.3617 25.0703 22.4327 25.0135C22.5596 24.9124 22.6854 24.8099 22.8153 24.7127C23.0695 24.5223 23.3319 24.3424 23.5978 24.1674C24.2592 23.7318 24.9555 23.3457 25.6809 23.0116C25.9727 22.8774 26.2692 22.7516 26.5702 22.6352C26.8987 22.5078 27.2306 22.3872 27.5693 22.2817C27.6703 22.2501 27.7736 22.2241 27.8755 22.1946C28.1919 22.1029 28.5121 22.0206 28.8361 21.9488C28.9908 21.9145 29.1462 21.8821 29.3027 21.8523C30.2621 21.6697 31.2505 21.5704 32.2622 21.5704C37.1337 21.5704 41.6596 23.7681 44.6791 27.5999L45.8201 29.048L46.9611 27.5999C49.9804 23.7681 54.5062 21.5704 59.3781 21.5704C60.195 21.5704 60.9973 21.6327 61.7809 21.7527C69.3561 22.9135 75.1769 29.4746 75.1769 37.3694C75.1768 42.2504 72.9725 46.7816 69.1292 49.8009ZM81.3384 39.8922C81.3366 39.9689 81.3339 40.0456 81.3318 40.1224C81.3267 40.3037 81.3208 40.4848 81.3131 40.6656C81.3093 40.7502 81.3052 40.8348 81.3009 40.9195C81.2919 41.0986 81.2816 41.2776 81.27 41.4564C81.2649 41.5329 81.2599 41.6095 81.2545 41.6858C81.2398 41.8887 81.2232 42.0912 81.2053 42.2934C81.2008 42.3431 81.197 42.3929 81.1923 42.4427C81.1185 43.2313 81.0186 44.0149 80.893 44.7923C80.8881 44.8219 80.8831 44.8516 80.8782 44.881C80.8403 45.1126 80.8001 45.3437 80.7573 45.5743C80.7516 45.6059 80.7456 45.6373 80.7397 45.6688C80.6946 45.9094 80.6472 46.1493 80.597 46.3888C80.5942 46.4032 80.5913 46.4175 80.5882 46.4317C80.4235 47.2146 80.2324 47.9903 80.0157 48.7572C80.0118 48.7707 80.0078 48.7846 80.0039 48.798C79.9381 49.0297 79.8698 49.2606 79.7994 49.4906C79.7874 49.5299 79.7751 49.5691 79.7629 49.6081C78.2606 54.455 75.7228 58.9387 72.2931 62.7504C72.2996 62.7107 72.3037 62.6704 72.31 62.6307C72.3533 62.3538 72.3925 62.0757 72.4272 61.7959C72.4385 61.7059 72.4478 61.6155 72.4581 61.5253C72.4863 61.2764 72.5115 61.0263 72.5328 60.7753C72.5382 60.7117 72.5449 60.6484 72.5499 60.5848C72.5736 60.2824 72.5907 59.9782 72.6042 59.6731C72.6074 59.5967 72.6101 59.5205 72.613 59.4442C72.6239 59.1285 72.6318 58.812 72.6318 58.4938C72.6318 56.102 72.3152 53.7373 71.6896 51.4506C75.7647 47.8926 78.0821 42.815 78.0821 37.3688C78.0821 27.0553 69.6916 18.6648 59.3783 18.6648C54.1957 18.6648 49.3438 20.7654 45.8203 24.4818C42.2966 20.7652 37.4449 18.6648 32.2624 18.6648C21.9488 18.6648 13.5583 27.0553 13.5583 37.3688C13.5583 42.9674 15.9827 48.1362 20.2445 51.702C19.663 53.9119 19.3687 56.1918 19.3687 58.4936C19.3687 58.8118 19.3764 59.1284 19.3876 59.444C19.3903 59.5203 19.393 59.5965 19.3964 59.6729C19.4097 59.9782 19.4269 60.2822 19.4506 60.5846C19.4555 60.6482 19.4623 60.7115 19.4677 60.7751C19.4891 61.0261 19.5142 61.2759 19.5425 61.5251C19.5527 61.6153 19.5624 61.7057 19.5734 61.7957C19.608 62.0755 19.6472 62.3535 19.6905 62.6306C19.6966 62.6703 19.7009 62.7105 19.7074 62.7502C16.2777 58.9385 13.74 54.4551 12.2374 49.6082C12.2252 49.5691 12.213 49.5297 12.201 49.4907C12.1305 49.2605 12.0621 49.03 11.9965 48.7984C11.9925 48.7847 11.9886 48.7711 11.9846 48.7576C11.7679 47.9907 11.5769 47.215 11.4121 46.4321C11.4093 46.4177 11.4064 46.4033 11.4033 46.3891C11.3532 46.15 11.3059 45.9097 11.2607 45.6691C11.2547 45.6375 11.2488 45.6062 11.243 45.5746C11.2005 45.3441 11.1602 45.113 11.1221 44.8814C11.1173 44.8517 11.1122 44.8221 11.1074 44.7926C10.9816 44.0153 10.8817 43.2317 10.808 42.443C10.8033 42.3933 10.7996 42.3435 10.7951 42.2937C10.7771 42.0916 10.7606 41.8889 10.7459 41.6862C10.7405 41.6096 10.7354 41.5331 10.7304 41.4567C10.7185 41.2779 10.7083 41.099 10.6995 40.9198C10.6952 40.8352 10.691 40.7506 10.6873 40.6659C10.6795 40.485 10.6734 40.3038 10.6684 40.1227C10.6662 40.046 10.6634 39.9693 10.6618 39.8925C10.6564 39.6372 10.6531 39.3815 10.6531 39.1258C10.6531 38.8329 10.6573 38.5411 10.6641 38.25C10.6661 38.1719 10.6697 38.0939 10.6722 38.0157C10.679 37.7994 10.6864 37.583 10.697 37.3676C10.7009 37.2885 10.7061 37.21 10.7105 37.1311C10.7227 36.913 10.7358 36.695 10.7521 36.4779C10.7572 36.4107 10.7629 36.3437 10.7685 36.2765C10.7872 36.0435 10.8075 35.8109 10.8307 35.5793C10.8355 35.5304 10.8407 35.4818 10.8458 35.4329C10.8725 35.1768 10.9013 34.9213 10.9334 34.6671C10.9365 34.643 10.9396 34.6191 10.9426 34.595C13.1732 17.2361 28.0444 3.77824 46 3.77824C63.9556 3.77824 78.8267 17.2359 81.0577 34.5943C81.0608 34.6184 81.064 34.6423 81.0669 34.6663C81.0991 34.921 81.1282 35.1765 81.1548 35.4327C81.1598 35.4812 81.165 35.5296 81.1699 35.5783C81.1931 35.8102 81.2135 36.0433 81.232 36.2769C81.2373 36.3437 81.2434 36.4106 81.248 36.4776C81.264 36.6946 81.2775 36.9128 81.2897 37.1309C81.294 37.2098 81.2994 37.2885 81.3032 37.3674C81.3138 37.5828 81.3212 37.7992 81.328 38.0155C81.3303 38.0937 81.3341 38.1717 81.3361 38.2498C81.3433 38.5409 81.347 38.8328 81.347 39.1256C81.3474 39.3815 81.3442 39.6372 81.3384 39.8922ZM83.2205 47.9781C83.2413 47.8897 83.2591 47.801 83.2794 47.7124C83.3171 47.5478 83.3536 47.3825 83.3892 47.2171C83.4296 47.0292 83.4695 46.8412 83.5071 46.6528C83.5394 46.4907 83.57 46.3279 83.6005 46.1653C83.6361 45.9739 83.6715 45.7827 83.7042 45.5908C83.7319 45.4282 83.7572 45.265 83.7831 45.1019C83.8133 44.9098 83.8436 44.7179 83.8709 44.5253C83.8947 44.3589 83.9153 44.1921 83.9365 44.0252C83.9608 43.8356 83.9859 43.6459 84.0075 43.4559C84.0273 43.2809 84.0438 43.105 84.0612 42.9293C84.0794 42.7469 84.0986 42.5647 84.1141 42.3819C84.1304 42.19 84.1424 41.9972 84.1559 41.8048C84.1676 41.6377 84.1811 41.4706 84.1904 41.3029C84.2032 41.0763 84.2111 40.8488 84.2201 40.6215C84.2253 40.4868 84.233 40.3524 84.2368 40.2174C84.247 39.8541 84.2526 39.4899 84.2526 39.1253C84.2526 38.8288 84.2479 38.533 84.2413 38.2373C84.2395 38.1613 84.2371 38.0854 84.2352 38.0096C84.228 37.758 84.2185 37.5068 84.2064 37.2558C84.2043 37.2109 84.2025 37.166 84.2005 37.121C84.1845 36.8095 84.1647 36.4986 84.1412 36.1881C84.141 36.1858 84.1408 36.1836 84.1406 36.1813C84.1167 35.8677 84.0884 35.5549 84.0569 35.2426C84.0555 35.2286 84.0542 35.2146 84.0526 35.2005C83.8048 32.7681 83.3274 30.3752 82.6207 28.0409C86.4901 29.823 89.0948 33.7347 89.0948 38.1569C89.0948 42.3413 86.777 46.077 83.2205 47.9781Z" fill="black"/>
<path d="M47.4526 55.3465L55.5888 49.2444L55.0465 48.1599C54.9511 47.9691 52.6319 43.4834 46 43.4834C39.3681 43.4834 37.0488 47.9691 36.9534 48.1601L36.4111 49.2445L44.5474 55.3465L44.5474 68.6623L40.1894 68.6623L40.1894 71.5675L51.8105 71.5675L51.8105 68.6623L47.4526 68.6623L47.4526 55.3465ZM40.2836 48.517C41.1702 47.6103 42.934 46.3886 46 46.3886C49.0692 46.3886 50.8336 47.613 51.7175 48.5163L46 52.8043L40.2836 48.517Z" fill="black"/>
<path d="M61.4948 37.6729L57.6211 37.6729L57.6211 40.578L61.4948 40.578L61.4948 37.6729Z" fill="black"/>
<path d="M34.3786 37.6729L30.5049 37.6729L30.5049 40.578L34.3786 40.578L34.3786 37.6729Z" fill="black"/>
</svg>
