<svg width="43" height="39" viewBox="0 0 43 39" fill="none" xmlns="http://www.w3.org/2000/svg">
<path d="M37.7401 13.1468H38.4408C38.5378 13.1468 38.6338 13.1278 38.7234 13.0907C38.813 13.0536 38.8944 12.9992 38.9629 12.9306C39.0315 12.8621 39.0859 12.7807 39.123 12.6911C39.16 12.6015 39.1791 12.5055 39.1791 12.4085V6.73552C39.1791 6.63856 39.16 6.54254 39.123 6.45295C39.0859 6.36337 39.0315 6.28197 38.9629 6.21341C38.8944 6.14485 38.813 6.09047 38.7234 6.05337C38.6338 6.01628 38.5378 5.9972 38.4408 5.99723H36.3428V1.0625C36.3428 0.965543 36.3237 0.869527 36.2866 0.779941C36.2495 0.690356 36.1952 0.608957 36.1266 0.540395C36.058 0.471833 35.9766 0.417453 35.887 0.38036C35.7975 0.343268 35.7015 0.324191 35.6045 0.324219H4.40274C4.30578 0.32419 4.20976 0.343266 4.12017 0.380358C4.03059 0.41745 3.94919 0.47183 3.88063 0.540392C3.81206 0.608954 3.75768 0.690354 3.72059 0.77994C3.6835 0.869526 3.66442 0.965542 3.66445 1.0625V6.73552C3.66442 6.83248 3.6835 6.92849 3.72059 7.01808C3.75769 7.10766 3.81207 7.18906 3.88063 7.25762C3.94919 7.32618 4.03059 7.38056 4.12017 7.41766C4.20976 7.45475 4.30578 7.47382 4.40274 7.47379H6.50078V11.6702H1.56641C1.46945 11.6702 1.37343 11.6893 1.28385 11.7264C1.19426 11.7635 1.11286 11.8179 1.0443 11.8864C0.975737 11.955 0.921356 12.0364 0.884264 12.126C0.847172 12.2156 0.828096 12.3116 0.828125 12.4085V35.1009C0.828096 35.1979 0.847172 35.2939 0.884264 35.3835C0.921356 35.4731 0.975737 35.5545 1.0443 35.6231C1.11286 35.6916 1.19426 35.746 1.28385 35.7831C1.37343 35.8202 1.46945 35.8393 1.56641 35.8392H18.5126C21.05 37.6888 24.1105 38.6823 27.2505 38.6756C31.2065 38.6711 34.9992 37.0977 37.7965 34.3004C40.5938 31.5032 42.1674 27.7105 42.1719 23.7546C42.1794 21.78 41.7911 19.824 41.0299 18.002C40.2688 16.18 39.1501 14.5291 37.7401 13.1468ZM5.14101 1.80078H34.8662V5.99723H5.14101V1.80078ZM7.97734 7.47379H37.7025V11.6702H35.9892C33.4485 9.8267 30.3898 8.83392 27.2507 8.83392C24.1117 8.83392 21.053 9.8267 18.5123 11.6702H7.97732L7.97734 7.47379ZM2.30469 13.1468H16.7619C15.5345 14.3627 14.5278 15.7826 13.7867 17.3433H2.30469V13.1468ZM2.30469 24.4928H12.3676C12.4354 25.9239 12.711 27.3376 13.1859 28.6893H2.30469V24.4928ZM12.3676 23.0163H2.30469V18.8198H13.1862C12.7112 20.1715 12.4354 21.5851 12.3676 23.0163ZM2.30469 30.1659H13.7864C14.5277 31.7265 15.5346 33.1466 16.762 34.3627H2.30469V30.1659ZM27.2505 37.199C24.6362 37.1991 22.0786 36.4368 19.8909 35.0055C17.7032 33.5743 15.9803 31.5362 14.9331 29.1407L14.9326 29.1395L14.929 29.132C13.7533 26.4456 13.4889 23.4484 14.1759 20.5977C14.8629 17.747 16.4638 15.1994 18.7341 13.3435C21.0044 11.4877 23.8196 10.4256 26.75 10.3193C29.6804 10.213 32.5651 11.0684 34.9639 12.7549C35.0155 12.8493 35.0875 12.9309 35.1746 12.994C35.2617 13.057 35.3618 13.0998 35.4676 13.1192C37.6883 14.8334 39.317 17.1995 40.1253 19.8859C40.9336 22.5723 40.8811 25.4442 39.9751 28.0993C39.0691 30.7543 37.355 33.0593 35.0731 34.6911C32.7912 36.323 30.0559 37.1999 27.2505 37.199Z" fill="black"/>
<path d="M26.0385 17.5228H27.2455L27.2527 17.5242L27.2598 17.5228H32.9873C33.0845 17.5231 33.1807 17.5042 33.2706 17.4673C33.3604 17.4303 33.4421 17.376 33.5109 17.3074C33.5797 17.2388 33.6343 17.1573 33.6716 17.0676C33.7088 16.9778 33.728 16.8817 33.728 16.7845C33.728 16.6873 33.7088 16.5911 33.6716 16.5014C33.6343 16.4117 33.5797 16.3302 33.5109 16.2616C33.4421 16.193 33.3604 16.1387 33.2706 16.1017C33.1807 16.0648 33.0845 16.0459 32.9873 16.0462H27.991V13.5318C27.9903 13.3364 27.9123 13.1492 27.7739 13.0113C27.6355 12.8734 27.4481 12.7959 27.2527 12.7959C27.0573 12.7959 26.8699 12.8734 26.7315 13.0113C26.5931 13.1492 26.515 13.3364 26.5144 13.5318V16.0462H26.0386C24.5171 16.0096 23.0366 16.5416 21.8864 17.5383C21.5127 17.8638 21.2113 18.264 21.0017 18.7131C20.7921 19.1621 20.6789 19.6502 20.6694 20.1457C20.6858 20.739 20.8449 21.3195 21.1335 21.8381C21.4221 22.3568 21.8315 22.7981 22.327 23.1248C23.4156 23.88 24.7138 24.2744 26.0386 24.2524H28.3572C28.8704 24.2503 29.3812 24.3216 29.8742 24.464C31.3168 24.8829 32.2491 25.8295 32.2491 26.8753C32.2292 27.236 32.1227 27.5867 31.9384 27.8974C31.7542 28.2082 31.4976 28.47 31.1907 28.6604C31.1236 28.7102 31.0573 28.7542 30.9801 28.8014C30.1864 29.2703 29.2789 29.5114 28.3572 29.4982H27.1997L27.1979 29.4979L27.1961 29.4982H21.4077C21.2123 29.4989 21.0251 29.5769 20.8872 29.7153C20.7493 29.8537 20.6718 30.0411 20.6718 30.2365C20.6718 30.4319 20.7493 30.6193 20.8872 30.7577C21.0251 30.8961 21.2123 30.9742 21.4077 30.9748H26.4596V33.4903C26.4602 33.6857 26.5383 33.8728 26.6767 34.0108C26.8151 34.1487 27.0025 34.2262 27.1979 34.2262C27.3933 34.2262 27.5807 34.1487 27.7191 34.0108C27.8575 33.8728 27.9355 33.6857 27.9362 33.4903V30.9748H28.3573C29.5532 30.9874 30.7294 30.6699 31.7566 30.0573C31.8691 29.9885 31.9729 29.9193 32.0652 29.8497C32.5592 29.5224 32.9677 29.0816 33.2566 28.5641C33.5454 28.0467 33.7063 27.4676 33.7256 26.8753C33.7256 25.1561 32.3759 23.6529 30.288 23.0462C29.6605 22.8648 29.0104 22.7737 28.3572 22.7758H26.0385C25.0263 22.7982 24.0324 22.503 23.1965 21.9316C22.8916 21.7393 22.6372 21.4768 22.4544 21.1661C22.2717 20.8555 22.166 20.5056 22.146 20.1457C22.1572 19.854 22.229 19.5678 22.357 19.3054C22.485 19.0431 22.6663 18.8103 22.8893 18.6219C23.7695 17.883 24.8898 17.492 26.0385 17.5228Z" fill="black"/>
</svg>
