<svg width="84" height="93" viewBox="0 0 84 93" fill="none" xmlns="http://www.w3.org/2000/svg">
<path d="M5.94794 73.0012L36.8361 90.8382C38.4294 91.7641 40.215 92.2266 42.0006 92.2266C43.7855 92.2266 45.5697 91.7641 47.1602 90.8403L78.0475 73.0032C81.2426 71.1727 83.2269 67.7482 83.2269 64.0654L83.2271 39.2266L80.352 39.2837L80.352 64.0654C80.352 66.7199 78.9215 69.1892 76.6144 70.5109L45.7194 88.3523C43.4256 89.6859 40.5751 89.6866 38.2773 88.3502L7.38126 70.5087C5.07835 69.1892 3.64784 66.7199 3.64784 64.0654L3.64784 28.3876C3.64784 25.7331 5.07835 23.2638 7.38539 21.9421L38.2805 4.10089C40.5742 2.76734 43.4245 2.76659 45.7225 4.10296L76.6183 21.9444C78.9213 23.2638 80.3518 25.7331 80.3518 28.3876L80.352 39.2837H83.2267V28.3876C83.2267 24.7049 81.2424 21.2803 78.0517 19.4518L47.1636 1.61476C43.9777 -0.2362 40.0211 -0.23545 36.8394 1.61269L5.95226 19.4498C2.75724 21.2803 0.772949 24.7049 0.772949 28.3876L0.772949 64.0654C0.772949 67.7482 2.75724 71.1727 5.94794 73.0012Z" fill="black"/>
<path d="M42.7186 14.4437C42.2736 14.1867 41.7262 14.1867 41.2812 14.4437L14.8348 29.7125C14.3898 29.9694 14.116 30.4439 14.116 30.9577L14.116 61.4948C14.116 62.0086 14.3898 62.4831 14.8348 62.74L41.2812 78.0088C41.5036 78.1373 41.7515 78.2012 42 78.2012C42.2485 78.2012 42.4962 78.1373 42.7188 78.0088L69.1654 62.74C69.6104 62.4831 69.8842 62.0086 69.8842 61.4948V30.9577C69.8842 30.4439 69.6104 29.9694 69.1654 29.7125L42.7186 14.4437ZM67.0087 60.6651L41.9998 75.1037L16.9909 60.6651L16.9909 31.7873L41.9998 17.3488L67.0087 31.7873V60.6651Z" fill="black"/>
<path d="M33.0802 37.6887C32.2863 37.6887 31.6427 38.3323 31.6427 39.1262V48.5055L24.9881 38.3385C24.6393 37.8072 23.9808 37.5672 23.3743 37.7482C22.7651 37.9299 22.3474 38.4901 22.3474 39.126L22.3474 53.3259C22.3474 54.1197 22.991 54.7633 23.7849 54.7633C24.5787 54.7633 25.2223 54.1197 25.2223 53.3259L25.2223 43.9465L31.8769 54.1135C32.6561 55.3006 34.5174 54.7579 34.5174 53.326V39.1262C34.5176 38.3323 33.874 37.6887 33.0802 37.6887Z" fill="black"/>
<path d="M50.1206 40.5643H53.7296V53.3268C53.7296 54.1206 54.3733 54.7642 55.1671 54.7642C55.9609 54.7642 56.6045 54.1206 56.6045 53.3268V40.5643H60.2144C61.0082 40.5643 61.6518 39.9207 61.6518 39.1269C61.6518 38.3331 61.0082 37.6895 60.2144 37.6895H50.1206C49.3267 37.6895 48.6831 38.3331 48.6831 39.1269C48.6831 39.9207 49.3267 40.5643 50.1206 40.5643Z" fill="black"/>
<path d="M37.3447 39.1269V53.3268C37.3447 54.1206 37.9883 54.7642 38.7822 54.7642C39.576 54.7642 40.2196 54.1206 40.2196 53.3268V47.6646H45.8908C46.6847 47.6646 47.3283 47.0209 47.3283 46.2271C47.3283 45.4333 46.6847 44.7897 45.8908 44.7897H40.2196V40.5643H45.8908C46.6847 40.5643 47.3283 39.9207 47.3283 39.1269C47.3283 38.3331 46.6847 37.6895 45.8908 37.6895H38.7822C37.9883 37.6895 37.3447 38.3331 37.3447 39.1269Z" fill="black"/>
</svg>
